Jump_normalized_Motion_pl04
version=1
nRows=23
nColumns=43
inDegrees=yes
endheader
time		pelvis_tilt		pelvis_list		pelvis_rotation		pelvis_tx		pelvis_ty		pelvis_tz		hip_flexion_r		hip_adduction_r		hip_rotation_r		knee_angle_r		ankle_angle_r		subtalar_angle_r		mtp_angle_r		hip_flexion_l		hip_adduction_l		hip_rotation_l		knee_angle_l		ankle_angle_l		subtalar_angle_l		mtp_angle_l		lumbar_extension		lumbar_bending		lumbar_rotation		neck_flexion		neck_lateral_bending		neck_rotation		arm_flex_r		arm_add_r		arm_rot_r		elbow_flex_r		pro_sup_r		wrist_flex_r		wrist_dev_r		hand_finger_flex_r		arm_flex_l		arm_add_l		arm_rot_l		elbow_flex_l		pro_sup_l		wrist_flex_l		wrist_dev_l		hand_finger_flex_l		
0.413333		0.275721		-24.383166		87.605971		0.049341		1.844782		1.672144		63.145420		4.270449		3.093534		-118.535540		25.091238		0.358089		-7.002515		64.907551		-7.957087		-0.901486		-121.959127		12.671962		-0.490292		25.007695		-36.467117		-3.024353		0.750469		28.907395		-0.806317		1.420923		92.300338		-24.485976		16.480179		83.956921		127.068011		-1.744796		0.582817		-15.570390		94.770844		-26.108525		23.141007		84.725241		118.634257		-10.951860		3.159329		19.379576		
0.416641		0.221705		-24.302593		87.539304		0.049113		1.846920		1.665716		62.382331		4.149082		3.288100		-118.087979		24.539954		0.649842		-7.249275		64.194455		-7.866937		-0.905732		-121.492488		11.847508		-0.302479		24.921567		-36.067077		-3.046154		0.777440		28.064722		-0.925586		1.461211		92.586181		-24.495782		16.799679		83.700434		126.845379		-1.564006		0.654233		-15.524798		95.018247		-25.933221		23.291546		84.507771		118.575493		-10.900917		3.201076		19.262878		
0.419949		0.188972		-24.192419		87.491527		0.048893		1.849070		1.659193		61.600302		4.032318		3.462205		-117.638041		23.914342		0.994291		-7.512198		63.472210		-7.776692		-0.883299		-121.027696		10.947271		-0.118564		24.819436		-35.690492		-3.048098		0.810297		27.174669		-1.051671		1.502185		92.828751		-24.476876		17.073595		83.430823		126.630347		-1.376574		0.703910		-15.468908		95.237861		-25.753751		23.428465		84.268503		118.482112		-10.842055		3.245002		19.154905		
0.423258		0.190247		-24.054904		87.484188		0.048671		1.851222		1.652544		60.796736		3.921169		3.602337		-117.180808		23.214336		1.380393		-7.790963		62.751056		-7.692900		-0.825107		-120.566875		9.981372		0.042145		24.706814		-35.335303		-3.009543		0.847172		26.254551		-1.178064		1.540070		93.011947		-24.430092		17.293165		83.155691		126.441676		-1.190853		0.734535		-15.397290		95.424468		-25.573009		23.557599		84.016723		118.361887		-10.759551		3.299613		19.064360		
0.426566		0.224063		-23.898583		87.512756		0.048430		1.853380		1.645797		59.979144		3.812236		3.708170		-116.708987		22.454618		1.780379		-8.077988		62.041366		-7.615453		-0.736389		-120.109913		8.963376		0.173719		24.590952		-34.996089		-2.934502		0.885243		25.317847		-1.303059		1.573193		93.155701		-24.366525		17.481809		82.875084		126.286902		-1.012170		0.758738		-15.310065		95.591881		-25.390049		23.681585		83.750633		118.234085		-10.647933		3.368572		18.994408		
0.429874		0.283496		-23.723886		87.574631		0.048197		1.855502		1.638955		59.149469		3.707275		3.783276		-116.237581		21.640793		2.174321		-8.367845		61.346736		-7.546168		-0.623720		-119.666880		7.894608		0.270597		24.474898		-34.671074		-2.827492		0.923314		24.373600		-1.427803		1.599752		93.268831		-24.300658		17.662396		82.597832		126.166928		-0.844573		0.782181		-15.208076		95.739681		-25.209820		23.802079		83.477068		118.110264		-10.506094		3.446426		18.947496		
0.433182		0.368257		-23.522255		87.665190		0.047925		1.857660		1.632031		58.297000		3.606434		3.829859		-115.740467		20.758313		2.545826		-8.663882		60.667332		-7.485467		-0.492955		-119.229392		6.734542		0.315796		24.355294		-34.378627		-2.687578		0.960610		23.412608		-1.558113		1.614425		93.373753		-24.238537		17.857667		82.311009		126.078331		-0.690444		0.813424		-15.087532		95.879801		-25.026695		23.908723		83.177923		117.994500		-10.332546		3.525141		18.925392		
0.436490		0.477529		-23.266639		87.783839		0.047604		1.859944		1.625104		57.389275		3.508983		3.846721		-115.201648		19.827109		2.880572		-8.995910		59.984267		-7.431556		-0.354812		-118.801111		5.454343		0.265244		24.230500		-34.174830		-2.512113		0.996502		22.434841		-1.701804		1.609371		93.523529		-24.182635		18.072335		82.016947		125.993742		-0.554432		0.846096		-14.938514		96.042570		-24.831435		23.974258		82.855171		117.866942		-10.130680		3.582889		18.912918		
0.439798		0.573925		-23.052542		87.902285		0.047351		1.861871		1.617933		56.545187		3.436641		3.863355		-114.758380		18.859220		3.188291		-9.286960		59.331179		-7.395491		-0.223855		-118.386264		4.180551		0.239339		24.094797		-33.865495		-2.348134		1.023820		21.548151		-1.846607		1.614982		93.562241		-24.163508		18.344733		81.757818		125.939698		-0.429569		0.887470		-14.798795		96.098744		-24.665509		24.094338		82.555202		117.777470		-9.941446		3.620862		18.924781		
0.443106		0.680931		-22.796699		88.039679		0.047038		1.864058		1.610955		55.675163		3.378348		3.879762		-114.222814		17.764254		3.475184		-9.592955		58.728996		-7.367826		-0.098508		-117.964591		2.666580		0.133193		23.908947		-33.664362		-2.164043		1.052342		20.563514		-2.004221		1.597665		93.703260		-24.132107		18.613154		81.440667		125.884319		-0.320438		0.952243		-14.644204		96.220405		-24.451334		24.149308		82.187163		117.678591		-9.771153		3.634930		18.947316		
0.446414		0.851252		-22.403209		88.257617		0.046623		1.866365		1.603712		54.637553		3.325494		3.779686		-113.703309		16.683091		3.600473		-10.014023		57.991593		-7.348679		0.042986		-117.511019		0.961620		-0.410596		23.680985		-33.615000		-1.885930		1.076650		19.726201		-2.205039		1.522526		93.871663		-24.143542		18.977305		81.120718		125.756092		-0.274759		0.984924		-14.375693		96.289062		-24.204099		24.144305		81.798475		117.501847		-9.577946		3.509120		18.986922		
0.449722		0.946771		-22.143804		88.411075		0.046328		1.868326		1.596556		53.812141		3.289850		3.776546		-113.235112		15.471469		3.858591		-10.383500		57.411736		-7.326996		0.167353		-117.070132		-0.619808		-0.576647		23.484928		-33.399592		-1.703471		1.084876		18.829950		-2.371700		1.525837		93.947068		-24.159865		19.314339		80.849702		125.665189		-0.220256		1.043606		-14.149759		96.329957		-24.014718		24.228339		81.448975		117.404713		-9.426455		3.459837		19.026648		
0.453030		0.992722		-21.975172		88.502843		0.046086		1.870069		1.589580		53.156932		3.275641		3.848224		-112.802858		14.136354		4.151494		-10.659706		56.984116		-7.340095		0.265835		-116.630436		-2.206502		-0.494674		23.313256		-33.083327		-1.592016		1.087670		17.861911		-2.481484		1.534166		93.986097		-24.132835		19.611768		80.538903		125.628460		-0.108830		1.127790		-13.999862		96.372909		-23.816911		24.340687		81.074178		117.366708		-9.338011		3.508229		19.064634		
0.456338		1.052825		-21.783018		88.606961		0.045815		1.871848		1.582619		52.500143		3.276658		3.905291		-112.363506		12.735983		4.327221		-10.952450		56.566555		-7.364370		0.366411		-116.176790		-3.735413		-0.535781		23.228692		-32.817754		-1.466634		1.091948		16.931751		-2.595150		1.524516		94.031156		-24.122834		19.918675		80.241616		125.576915		0.009383		1.193841		-13.837954		96.418012		-23.612030		24.438017		80.707439		117.324995		-9.252538		3.538593		19.114697		
0.459646		1.233466		-21.429301		88.776390		0.045559		1.873973		1.575485		51.651392		3.368882		3.774507		-111.857241		11.215797		3.828013		-11.556536		56.006726		-7.463026		0.522335		-115.682466		-5.385219		-1.162878		24.051699		-32.773073		-1.222775		1.154995		16.167093		-2.746381		1.420941		94.146915		-24.172724		20.316012		79.952500		125.312371		0.002447		1.221277		-13.396233		96.459744		-23.358503		24.435275		80.306024		117.269937		-9.138310		3.404436		19.268658		
0.462955		1.259220		-21.302347		88.863584		0.045325		1.875537		1.568688		51.149211		3.396783		3.912621		-111.455188		9.726433		4.053706		-11.929223		55.723620		-7.498731		0.625805		-115.243578		-6.328371		-0.896434		24.484714		-32.462723		-1.143600		1.116744		15.270052		-2.804097		1.469686		94.170455		-24.136611		20.623299		79.638070		125.246749		0.101314		1.337259		-13.195718		96.539649		-23.196301		24.599593		79.939182		117.328910		-9.032109		3.491146		19.340971		
0.466263		1.269440		-21.267624		88.922228		0.045169		1.877010		1.561955		50.718287		3.456146		4.055304		-111.023990		8.621150		4.109209		-12.195071		55.535447		-7.551467		0.673322		-114.784605		-6.797198		-0.653908		24.843171		-32.103214		-1.096947		1.059567		14.691170		-2.834859		1.487666		94.151505		-24.086397		20.874058		79.406146		125.207066		0.211724		1.412309		-13.075537		96.600690		-23.080085		24.730750		79.662596		117.393638		-8.951764		3.574239		19.384849		
0.469571		1.719845		-20.945224		89.199497		0.045399		1.878848		1.554952		50.009703		3.881237		3.752669		-110.506421		6.936151		3.334171		-14.616421		55.138206		-7.925658		1.271630		-114.283371		-7.924588		-0.242347		33.107871		-32.051685		-0.691376		1.224297		13.890858		-2.702796		1.421308		94.256528		-24.189405		21.356279		79.073559		124.555141		-0.102898		1.608232		-11.970180		96.667695		-22.769808		24.727354		79.275835		118.086375		-8.654071		3.524648		19.774663		
0.472879		1.723464		-20.832287		89.273617		0.045297		1.880275		1.548247		49.628596		3.946067		3.907010		-110.110423		5.220510		3.284006		-15.409140		54.919051		-8.002896		1.271364		-113.821567		-7.979995		-0.080851		34.968986		-31.789658		-0.644906		1.140213		13.130184		-2.841764		1.501977		94.238596		-24.137642		21.662115		78.827830		124.441793		-0.064258		1.690769		-11.653886		96.776910		-22.658302		24.911587		78.913387		118.270186		-8.525728		3.612108		19.866757		
0.476187		1.658205		-20.703265		89.186569		0.045461		1.881694		1.541575		49.251723		4.098428		4.163688		-109.704954		3.473673		2.900744		-15.884139		54.627380		-8.128490		1.129311		-113.347101		-7.392004		0.280750		35.407061		-31.586148		-0.750828		1.079000		12.581884		-2.805297		1.557389		94.249915		-24.005190		21.904132		78.510343		124.373487		0.110872		1.692863		-11.487016		96.905161		-22.645039		25.141504		78.649975		118.422975		-8.461652		3.677783		19.857233		
0.479495		1.653843		-20.563297		89.188658		0.045639		1.883116		1.534864		48.853076		4.269122		4.363500		-109.254690		1.777732		2.771775		-16.314945		54.373917		-8.250960		1.053222		-112.868892		-6.760105		0.554816		35.792919		-31.417878		-0.791751		1.010013		12.109582		-2.759557		1.635574		94.212723		-23.932465		22.118086		78.269918		124.288085		0.268697		1.676484		-11.332043		97.037413		-22.603669		25.394382		78.387599		118.594432		-8.387052		3.721492		19.842543		
0.482803		1.679163		-20.445823		89.275742		0.045646		1.884442		1.528300		48.506388		4.375736		4.518825		-108.777203		0.075521		3.055381		-16.567418		54.210609		-8.307197		1.021476		-112.377786		-6.135862		0.593752		35.910705		-31.254755		-0.762422		0.898624		11.665526		-2.675179		1.703867		94.204239		-23.866629		22.339365		78.012767		124.222713		0.431490		1.690342		-11.227944		97.167847		-22.547582		25.611033		78.105120		118.743100		-8.324010		3.749375		19.819684		
0.486111		1.700581		-20.295504		89.328494		0.045773		1.885730		1.521706		48.147300		4.521719		4.685381		-108.263537		-1.687576		3.332492		-16.697251		54.023873		-8.396944		0.965344		-111.855523		-5.575622		0.616880		35.920919		-31.147328		-0.767097		0.791943		11.306058		-2.579709		1.799685		94.171735		-23.773549		22.529550		77.760813		124.114404		0.590150		1.678080		-11.130695		97.282411		-22.511913		25.823919		77.849734		118.920536		-8.288885		3.738701		19.767171		
